<svg width="9" height="8" viewBox="0 0 9 8" fill="none" xmlns="http://www.w3.org/2000/svg">
<path d="M3.31937 1.63361C3.69098 0.489905 5.30902 0.489905 5.68063 1.63361C5.84682 2.14509 6.32346 2.49139 6.86126 2.49139C8.06383 2.49139 8.56383 4.03024 7.59093 4.73708C7.15584 5.0532 6.97378 5.61352 7.13997 6.125C7.51159 7.26871 6.20256 8.21976 5.22967 7.51292C4.79458 7.1968 4.20542 7.1968 3.77033 7.51292C2.79744 8.21976 1.48842 7.26871 1.86003 6.125C2.02622 5.61352 1.84416 5.0532 1.40907 4.73708C0.436172 4.03024 0.936174 2.49139 2.13874 2.49139C2.67654 2.49139 3.15318 2.14509 3.31937 1.63361Z" fill="#F5D150"/>
</svg>
